<svg xmlns="http://www.w3.org/2000/svg" xmlns:xlink="http://www.w3.org/1999/xlink" version="1.1" id="Layer_1" x="0px" y="0px" width="100.035px" height="66.187px" viewBox="2.965 14.259 100.035 66.187" enable-background="new 2.965 14.259 100.035 66.187" xml:space="preserve">
<path d="M102.452,20.582l-42.537,0.002c-1.188,0-1.438,0.027-1.97-0.84l-2.068-4.336c-0.306-0.646-0.306-1.149-2.594-1.149H11.636  c-1.688,0-2.456,0.486-2.653,1.429L8.34,19.117c-0.24,1.068-0.988,1.399-2.488,1.468H3.514c-0.292,0-0.532,0.153-0.532,0.506v58.251  c0,0.738,0.318,1.104,1.118,1.104h97.649c0.962,0,1.233-0.271,1.233-1.201V21.088C102.983,20.81,102.744,20.582,102.452,20.582z   M22.347,25.647c0.621,0,1.198,0.24,1.617,0.644l0.651-0.619v1.907h-2.004l0.698-0.664c-0.247-0.242-0.591-0.387-0.961-0.387  c-0.74,0-1.342,0.575-1.342,1.279s0.602,1.278,1.342,1.278c0.547,0,1.034-0.312,1.242-0.793c0.097-0.225,0.368-0.333,0.605-0.241  c0.236,0.092,0.35,0.35,0.252,0.576c-0.35,0.815-1.175,1.341-2.1,1.341c-1.252,0-2.269-0.968-2.269-2.161  C20.078,26.617,21.095,25.647,22.347,25.647z M13.243,27.302h1.83c0.019,0,0.035,0.008,0.055,0.01V26.58l2.234,1.229l-2.234,1.228  v-0.732c-0.02,0.002-0.036,0.01-0.055,0.01h-1.83c-0.294,0-0.532-0.227-0.532-0.506C12.711,27.529,12.949,27.302,13.243,27.302z   M8.069,26.58v0.732c0.019-0.002,0.035-0.01,0.055-0.01h1.83c0.293,0,0.532,0.227,0.532,0.506c0,0.279-0.238,0.506-0.532,0.506  h-1.83c-0.02,0-0.036-0.008-0.055-0.01v0.732l-2.235-1.228L8.069,26.58z M99.402,76.906c0,0.277-0.24,0.506-0.53,0.506H6.742  c-0.292,0-0.532-0.229-0.532-0.506V32.666c0-0.278,0.239-0.506,1.595-0.506h90.903c0.696,0,0.694,0.228,0.694,0.506V76.906z   M99.402,29.46c0,0.279-0.24,0.506-0.53,0.506H28.663c-0.292,0-0.531-0.228-0.531-0.506v-3.542c0-0.278,0.24-0.506,0.531-0.506  h70.209c0.29,0,0.53,0.228,0.53,0.506V29.46z"/>
</svg>